{"title":"Main.Street.2010.DvDRip.x264.Feel-Free","uid":6113494,"size":909739672,"categoryP":"video","categoryS":"movies","magnet":"?xt=urn:btih:3ece2a208e94158f4b53b363f1bdeaf1b649c269&amp;dn=Main.Street.2010.DvDRip.x264.Feel-Free&amp;tr=udp%3A%2F%2Ftracker.openbittorrent.com%3A80&amp;tr=udp%3A%2F%2Fopen.demonii.com%3A1337&amp;tr=udp%3A%2F%2Ftracker.coppersurfer.tk%3A6969&amp;tr=udp%3A%2F%2Fexodus.desync.com%3A6969","seeders":0,"leechers":0,"uploader":"neon","files":10,"time":1295455245,"description":"Genre:  drama\nLanguage:English\nIMDb:http://www.imdb.com/title/tt1365483/\nSourceVD\n\n\nFormat                           : Matroska\nFile size                        : 866 MiB\nDuration                         : 1h 23mn\nOverall bit rate                 : 1 453 Kbps\n\n\nVideo\nFormat settings, CABAC           : Yes\nFormat settings, ReFrames        : 4 frames\nCodec ID                         : V_MPEG4/ISO/AVC\nDuration                         : 1h 23mn\nBit rate                         : 1 200 Kbps\nWidth                            : 720 pixels\nHeight                           : 384 pixels\nDisplay aspect ratio             : 1.875\nFrame rate mode                  : Variable\nFrame rate                       : 25.000 fps\nColor space                      : YUV\nChroma subsampling               : 4:2:0\nBit depth                        : 8 bits\nScan type                        : Progressive\nBits/(Pixel*Frame)               : 0.174\nStream size                      : 696 MiB (80%)\nWriting library                  : x264\n\n\nAudio\nID                               : 2\nFormat                           : AC-3\nFormat/Info                      : Audio Coding 3\nMode extension                   : CM (complete main)\nCodec ID                         : A_AC3\nDuration                         : 1h 23mn\nBit rate mode                    : Constant\nBit rate                         : 256 Kbps\nChannel(s)                       : 2 channels\nChannel positions                : Front: L R\nSampling rate                    : 48.0 KHz\nBit depth                        : 16 bits\nVideo delay                      : -40ms\nStream size                      : 152 MiB (18%)\nLanguage                         : English\n\n   \nPlot:\n Several residents of a small Southern city whose lives are changed by the arrival of a stranger with a controversial plan to save their decaying hometown\n\n","torrent":{"xt":"urn:btih:3ece2a208e94158f4b53b363f1bdeaf1b649c269","amp;dn":"Main.Street.2010.DvDRip.x264.Feel-Free","amp;tr":["udp%3A%2F%2Ftracker.openbittorrent.com%3A80","udp%3A%2F%2Fopen.demonii.com%3A1337","udp%3A%2F%2Ftracker.coppersurfer.tk%3A6969","udp%3A%2F%2Fexodus.desync.com%3A6969"],"infoHash":"3ece2a208e94158f4b53b363f1bdeaf1b649c269","infoHashBuffer":{"type":"Buffer","data":[62,206,42,32,142,148,21,143,75,83,179,99,241,189,234,241,182,73,194,105]},"announce":[],"urlList":[]}}